{"glyphs":{"0":{"ha":765,"x_min":104,"x_max":661,"o":"m 215 890 l 215 151 l 104 39 l 104 1001 l 621 1001 l 510 890 l 215 890 m 549 850 l 660 961 l 660 0 l 143 0 l 256 111 l 549 111 l 549 850 z "},"1":{"ha":507,"x_min":89,"x_max":425,"o":"m 313 111 l 424 111 l 424 0 l 90 0 l 90 111 l 201 111 l 201 701 l 313 790 l 313 111 m 201 774 l 122 711 l 90 685 l 90 828 l 313 1006 l 313 863 l 201 774 z "},"2":{"ha":843,"x_min":82,"x_max":750,"o":"m 522 985 q 688 864 625 953 q 750 667 750 775 l 750 663 q 682 461 750 550 q 665 440 674 450 l 593 365 q 593 364 593 364 q 592 364 593 364 l 351 111 l 244 0 l 90 0 l 583 515 q 631 601 617 553 q 635 618 632 608 q 639 663 639 640 l 639 668 q 610 776 639 725 q 590 804 601 790 q 415 890 524 890 q 340 877 376 890 q 275 840 304 864 q 226 783 246 815 q 193 679 196 736 q 193 668 193 675 l 82 668 q 119 819 82 749 q 217 935 156 890 q 357 996 278 979 q 522 985 436 1013 m 317 0 l 422 111 l 750 111 l 750 0 l 317 0 z "},"3":{"ha":853,"x_min":93,"x_max":769,"o":"m 475 556 q 655 494 575 556 q 754 338 735 433 q 749 197 769 265 q 697 100 732 144 q 667 69 682 83 q 576 17 626 35 q 482 0 531 0 l 93 0 l 93 111 l 482 111 q 574 139 532 111 q 622 186 603 157 q 644 238 638 211 q 649 278 649 257 q 646 310 649 294 q 589 406 635 368 q 482 444 543 444 l 208 444 l 333 556 l 475 556 m 267 556 l 142 444 l 93 444 l 93 556 l 100 556 l 475 890 l 93 890 l 93 1001 l 768 1001 l 413 686 l 267 556 z "},"4":{"ha":810,"x_min":58,"x_max":707,"o":"m 58 444 l 707 1013 l 707 668 l 596 668 l 596 767 l 354 556 l 668 556 l 556 444 l 58 444 m 596 0 l 596 406 l 707 517 l 707 0 l 596 0 z "},"5":{"ha":850,"x_min":89,"x_max":758,"o":"m 686 540 q 758 333 758 450 q 754 286 758 310 q 719 179 746 231 q 572 35 669 83 q 572 35 572 35 q 571 33 571 35 q 424 0 501 0 q 188 98 286 0 q 90 333 90 196 l 201 333 q 285 161 201 226 q 382 115 328 126 q 424 111 403 111 q 540 144 488 111 q 550 150 544 147 q 620 229 594 181 q 646 333 646 278 q 581 491 646 426 q 424 556 517 556 l 103 556 l 214 1001 l 328 1001 l 244 668 l 424 668 q 643 586 549 668 q 686 540 667 565 m 746 1001 l 746 890 l 342 890 l 369 1001 l 746 1001 z "},"6":{"ha":864,"x_min":101,"x_max":786,"o":"m 214 556 l 325 556 l 103 333 l 103 779 q 168 936 103 871 q 325 1001 233 1001 l 547 1001 q 706 936 640 1001 q 771 779 771 871 l 668 779 q 635 858 668 825 q 557 890 603 890 l 325 890 q 247 858 279 890 q 214 779 214 825 l 214 556 m 492 556 q 702 460 618 556 q 767 236 786 364 q 670 67 751 133 q 483 0 589 0 l 103 0 l 103 256 l 214 367 l 214 111 l 492 111 q 622 173 571 111 q 654 315 672 235 q 622 383 647 353 q 562 428 597 413 q 488 444 526 444 l 301 444 l 413 556 l 492 556 z "},"7":{"ha":808,"x_min":63,"x_max":731,"o":"m 600 1001 l 557 890 l 63 890 l 63 1001 l 600 1001 m 657 1001 l 731 1001 l 731 879 l 397 0 l 278 0 l 336 156 l 615 890 l 657 1001 z "},"8":{"ha":876,"x_min":104,"x_max":772,"o":"m 660 111 l 660 310 l 772 399 l 772 0 l 104 0 l 104 310 l 215 399 l 215 111 l 660 111 m 736 890 l 215 890 l 215 556 l 660 556 l 660 754 l 772 843 l 772 474 l 736 444 l 179 444 l 104 385 l 104 1001 l 772 1001 l 772 919 l 736 890 z "},"9":{"ha":864,"x_min":93,"x_max":761,"o":"m 649 850 l 761 961 l 761 222 q 696 65 761 131 q 538 0 631 0 l 315 0 q 158 65 224 0 q 93 222 93 131 l 204 222 q 237 144 204 176 q 315 111 269 111 l 538 111 q 617 144 585 111 q 649 222 649 176 l 649 444 l 371 444 q 265 467 315 444 q 214 494 236 478 q 126 592 158 532 q 93 724 93 653 q 174 919 93 838 q 371 1001 256 1001 l 721 1001 l 610 890 l 371 890 q 253 841 303 890 q 204 724 204 792 q 229 635 204 675 q 294 575 254 596 q 356 557 324 560 q 371 556 364 556 l 649 556 l 649 850 z "},"\u0000":{"ha":0,"x_min":0,"x_max":0,"o":""},"\n":{"ha":0,"x_min":0,"x_max":0,"o":""},"\r":{"ha":0,"x_min":0,"x_max":0,"o":""}," ":{"ha":307,"x_min":0,"x_max":0,"o":""},"!":{"ha":313,"x_min":100,"x_max":213,"o":"m 211 0 l 100 0 l 100 111 l 211 111 l 211 0 m 100 1001 l 211 1001 l 211 333 l 183 222 l 128 222 l 100 333 l 100 1001 z "},"\"":{"ha":417,"x_min":68,"x_max":349,"o":"m 69 890 l 69 1001 l 181 1001 l 181 890 l 153 779 l 97 779 l 69 890 m 236 1001 l 347 1001 l 347 890 l 319 779 l 264 779 l 236 890 l 236 1001 z "},"#":{"ha":1179,"x_min":89,"x_max":1090,"o":"m 1090 668 l 908 668 l 831 333 l 1090 333 l 1090 222 l 804 222 l 753 0 l 638 0 l 690 222 l 361 222 l 310 0 l 196 0 l 247 222 l 89 222 l 89 333 l 272 333 l 349 668 l 89 668 l 89 779 l 374 779 l 424 1001 l 538 1001 l 488 779 l 819 779 l 871 1001 l 986 1001 l 935 779 l 1090 779 l 1090 668 m 717 333 l 793 668 l 463 668 l 386 333 l 717 333 z "},"$":{"ha":740,"x_min":90,"x_max":649,"o":"m 425 556 q 583 491 518 556 q 647 334 647 426 q 583 176 647 242 q 425 111 518 111 l 425 0 l 314 0 l 314 111 q 157 176 222 111 q 92 333 92 242 l 203 333 q 235 255 203 288 q 314 222 268 222 l 314 444 q 157 510 222 444 q 92 667 92 575 q 157 825 92 760 q 314 890 222 890 l 314 1001 l 425 1001 l 425 890 q 583 825 518 890 q 647 668 647 760 l 536 668 q 503 747 536 714 q 425 779 471 779 l 425 556 m 314 556 l 314 779 q 235 747 268 779 q 203 667 203 714 q 235 588 203 621 q 314 556 268 556 m 425 222 q 481 238 456 222 q 522 278 507 253 q 536 333 536 304 q 503 412 536 379 q 425 444 471 444 l 425 222 z "},"%":{"ha":900,"x_min":69,"x_max":832,"o":"m 828 1001 l 831 999 l 200 0 l 72 0 l 69 1 l 700 1001 l 828 1001 m 728 111 l 617 111 l 617 222 l 728 222 l 728 111 m 283 779 l 172 779 l 172 890 l 283 890 l 283 779 z "},"&":{"ha":968,"x_min":104,"x_max":883,"o":"m 883 511 l 883 371 l 674 206 l 883 67 l 883 0 l 783 0 l 660 82 l 660 0 l 104 0 l 104 1001 l 660 1001 l 660 472 l 479 336 l 576 271 l 883 511 m 215 890 l 215 500 l 232 500 l 381 401 l 549 528 l 549 890 l 215 890 m 549 111 l 549 156 l 215 378 l 215 111 l 549 111 z "},"'":{"ha":250,"x_min":69,"x_max":182,"o":"m 69 1001 l 181 1001 l 181 890 l 153 779 l 97 779 l 69 890 l 69 1001 z "},"(":{"ha":411,"x_min":97,"x_max":325,"o":"m 325 1001 q 208 501 208 765 q 325 0 208 236 l 201 0 q 97 501 97 239 q 201 1001 97 763 l 325 1001 z "},")":{"ha":411,"x_min":86,"x_max":314,"o":"m 208 1001 q 314 501 314 763 q 208 0 314 239 l 86 0 q 203 501 203 236 q 86 1001 203 765 l 208 1001 z "},"*":{"ha":360,"x_min":68,"x_max":292,"o":"m 290 918 l 290 863 l 225 863 l 260 792 l 210 767 l 179 828 l 149 767 l 99 792 l 135 863 l 68 863 l 68 918 l 151 918 l 151 1001 l 207 1001 l 207 918 l 290 918 z "},"+":{"ha":704,"x_min":72,"x_max":631,"o":"m 407 556 l 629 556 l 629 444 l 407 444 l 407 222 l 296 222 l 296 444 l 74 444 l 74 556 l 296 556 l 296 779 l 407 779 l 407 556 z "},",":{"ha":232,"x_min":60,"x_max":172,"o":"m 60 111 l 171 111 l 171 -111 l 115 -111 l 115 0 l 60 0 l 60 111 z "},"-":{"ha":676,"x_min":60,"x_max":617,"o":"m 615 444 l 60 444 l 60 556 l 615 556 l 615 444 z "},".":{"ha":232,"x_min":60,"x_max":172,"o":"m 171 0 l 60 0 l 60 111 l 171 111 l 171 0 z "},"/":{"ha":672,"x_min":64,"x_max":607,"o":"m 486 1001 l 606 1001 l 185 0 l 64 0 l 486 1001 z "},":":{"ha":254,"x_min":71,"x_max":183,"o":"m 182 0 l 71 0 l 71 111 l 182 111 l 182 0 m 182 444 l 71 444 l 71 556 l 182 556 l 182 444 z "},";":{"ha":254,"x_min":69,"x_max":183,"o":"m 182 444 l 71 444 l 71 556 l 182 556 l 182 444 m 71 0 l 71 111 l 182 111 l 182 -111 l 126 -111 l 126 0 l 71 0 z "},"<":{"ha":849,"x_min":64,"x_max":769,"o":"m 769 729 l 313 500 l 769 272 l 719 172 l 64 500 l 719 829 l 769 729 z "},"=":{"ha":699,"x_min":71,"x_max":628,"o":"m 626 333 l 71 333 l 71 444 l 626 444 l 626 333 m 626 556 l 71 556 l 71 668 l 626 668 l 626 556 z "},">":{"ha":849,"x_min":79,"x_max":785,"o":"m 129 829 l 785 500 l 129 172 l 79 272 l 536 500 l 79 729 l 129 829 z "},"?":{"ha":715,"x_min":75,"x_max":633,"o":"m 410 0 l 299 0 l 299 111 l 410 111 l 410 0 m 158 919 q 198 960 158 919 q 354 1001 239 1001 q 551 919 469 1001 q 632 724 632 838 q 569 547 632 624 q 410 450 506 469 l 410 222 l 299 222 l 299 556 l 354 556 q 472 605 424 556 q 521 723 521 654 q 472 841 521 792 q 355 890 424 890 q 237 841 286 890 q 188 724 188 792 l 188 668 l 76 668 l 76 724 q 158 919 76 838 z "},"@":{"ha":1089,"x_min":99,"x_max":990,"o":"m 824 318 l 713 429 l 713 556 l 604 556 q 465 508 526 556 q 425 469 443 492 q 378 331 378 408 l 378 222 l 879 222 l 879 724 l 211 724 l 211 56 l 768 56 l 768 -56 l 100 -56 l 100 835 l 990 835 l 990 111 l 267 111 l 267 331 q 347 547 267 454 q 386 588 365 569 q 604 668 481 668 l 824 668 l 824 318 z "},"A":{"ha":825,"x_min":18,"x_max":807,"o":"m 413 1001 l 472 849 l 138 0 l 18 0 l 413 1001 m 501 775 l 807 0 l 688 0 l 442 622 l 501 775 z "},"B":{"ha":849,"x_min":104,"x_max":772,"o":"m 660 500 q 742 403 713 463 q 772 278 772 344 q 725 125 772 194 q 690 82 710 101 q 493 0 608 0 l 104 0 l 104 1001 l 493 1001 q 690 919 608 1001 q 772 724 772 838 q 742 597 772 656 q 660 500 713 539 m 644 207 q 660 278 660 240 q 611 396 660 347 q 493 444 563 444 l 406 444 l 294 556 l 493 556 q 611 605 563 556 q 660 723 660 654 q 611 841 660 792 q 493 890 563 890 l 215 890 l 215 556 l 326 444 l 215 444 l 215 111 l 493 111 q 611 160 563 111 q 644 207 632 181 z "},"C":{"ha":1108,"x_min":56,"x_max":1054,"o":"m 556 111 q 812 207 703 111 q 942 444 921 303 l 1054 444 q 985 243 1042 336 q 840 88 929 150 q 643 8 751 26 l 539 111 q 556 111 544 111 m 183 389 q 213 317 194 351 q 255 253 231 283 q 309 199 279 224 q 373 157 339 175 q 444 128 407 139 l 572 0 q 556 0 567 0 q 306 67 421 0 q 123 250 190 135 q 56 500 56 365 q 56 517 56 511 q 64 588 57 553 q 233 883 94 765 q 556 1001 372 1001 q 792 942 682 1001 q 971 781 901 883 q 1054 556 1040 679 l 942 556 q 812 794 921 699 q 556 890 703 890 q 281 776 396 890 q 167 500 167 661 q 167 483 167 489 q 183 389 169 436 z "},"D":{"ha":826,"x_min":103,"x_max":771,"o":"m 269 1001 q 521 934 406 1001 q 703 751 636 867 q 771 500 771 636 q 663 191 771 326 q 389 15 556 56 q 322 3 358 7 q 269 0 297 0 l 103 0 l 103 222 l 214 111 l 269 111 q 292 113 281 111 q 477 171 393 118 q 610 311 561 224 q 658 500 658 399 q 544 776 658 661 q 269 890 431 890 l 214 890 l 214 190 l 103 301 l 103 1001 l 269 1001 z "},"E":{"ha":836,"x_min":103,"x_max":771,"o":"m 214 406 l 214 111 l 771 111 l 771 0 l 103 0 l 103 517 l 214 406 m 771 890 l 214 890 l 214 651 l 310 556 l 771 556 l 771 444 l 254 444 l 103 596 l 103 1001 l 771 1001 l 771 890 z "},"F":{"ha":814,"x_min":103,"x_max":771,"o":"m 142 1001 l 771 1001 l 771 890 l 254 890 l 142 1001 m 214 850 l 214 556 l 771 556 l 771 444 l 214 444 l 214 0 l 103 0 l 103 961 l 214 850 z "},"G":{"ha":1108,"x_min":54,"x_max":1054,"o":"m 611 333 l 611 444 l 1054 444 q 1001 272 1043 353 q 988 247 996 261 l 906 329 q 908 333 907 332 l 611 333 m 556 111 q 682 132 621 111 q 792 191 743 153 q 876 279 842 229 l 956 200 q 781 53 886 107 q 556 0 676 0 q 306 67 421 0 q 123 250 190 135 q 56 500 56 365 q 81 656 56 581 q 150 793 106 732 q 256 900 194 854 q 303 932 278 918 q 556 1001 419 1001 q 891 873 749 1001 q 1054 556 1033 744 l 942 556 q 812 794 921 699 q 556 890 703 890 q 385 850 465 890 q 335 821 358 838 q 212 683 257 768 q 167 500 167 599 q 281 226 167 340 q 556 111 394 111 z "},"H":{"ha":874,"x_min":101,"x_max":771,"o":"m 103 0 l 103 628 l 286 444 l 214 444 l 214 0 l 103 0 m 658 1001 l 771 1001 l 771 374 l 588 556 l 658 556 l 658 1001 m 404 556 l 515 556 l 771 301 l 771 0 l 658 0 l 658 256 l 469 444 l 358 444 l 103 700 l 103 1001 l 214 1001 l 214 746 l 404 556 z "},"I":{"ha":315,"x_min":101,"x_max":214,"o":"m 101 1001 l 213 1001 l 213 596 l 101 707 l 101 1001 m 101 485 l 101 628 l 213 517 l 213 374 l 101 485 m 101 0 l 101 406 l 213 294 l 213 0 l 101 0 z "},"J":{"ha":676,"x_min":24,"x_max":582,"o":"m 469 1001 l 581 1001 l 581 596 l 469 485 l 469 1001 m 469 278 l 469 406 l 581 517 l 581 278 q 499 81 581 163 q 303 0 418 0 q 126 63 204 0 q 88 101 106 81 q 25 278 25 179 l 136 278 q 167 182 136 225 q 207 142 183 158 q 303 111 250 111 q 421 160 372 111 q 469 278 469 210 z "},"K":{"ha":917,"x_min":103,"x_max":893,"o":"m 214 411 l 163 346 l 103 271 l 103 1001 l 214 1001 l 214 411 m 526 538 l 893 0 l 757 0 l 454 446 l 103 0 l 103 181 l 749 1001 l 892 1001 l 526 538 z "},"L":{"ha":676,"x_min":104,"x_max":661,"o":"m 215 1001 l 215 111 l 326 0 l 104 0 l 104 1001 l 215 1001 m 294 111 l 660 111 l 660 0 l 406 0 l 294 111 z "},"M":{"ha":1208,"x_min":103,"x_max":1104,"o":"m 103 0 l 103 783 l 214 686 l 214 0 l 103 0 m 603 575 l 1104 1013 l 1104 0 l 993 0 l 993 767 l 603 426 l 103 867 l 103 1013 l 603 575 z "},"N":{"ha":986,"x_min":103,"x_max":882,"o":"m 103 0 l 103 751 l 214 631 l 214 0 l 103 0 m 771 1001 l 882 1001 l 882 -11 l 103 835 l 103 1013 l 771 289 l 771 1001 z "},"O":{"ha":1113,"x_min":56,"x_max":1057,"o":"m 556 1001 q 807 934 692 1001 q 990 751 922 867 q 1057 500 1057 636 q 929 167 1057 310 l 850 246 q 946 500 946 356 q 831 776 946 661 q 556 890 717 890 q 301 794 411 890 l 222 874 q 556 1001 365 1001 m 556 111 q 811 207 701 111 l 890 128 q 556 0 747 0 q 306 67 421 0 q 123 250 190 135 q 56 500 56 365 q 183 835 56 692 l 263 756 q 167 500 167 646 q 281 225 167 339 q 556 111 396 111 z "},"P":{"ha":810,"x_min":103,"x_max":771,"o":"m 492 1001 q 689 919 607 1001 q 771 724 771 838 q 738 592 771 653 q 650 494 706 532 q 599 467 626 478 q 492 444 547 444 l 214 444 l 214 0 l 103 0 l 103 961 l 214 850 l 214 556 l 492 556 q 507 557 500 556 q 568 575 540 560 q 634 635 610 596 q 658 724 658 675 q 610 841 658 792 q 492 890 561 890 l 254 890 l 142 1001 l 492 1001 z "},"Q":{"ha":1114,"x_min":56,"x_max":1054,"o":"m 553 890 q 297 794 408 890 l 219 874 q 553 1001 363 1001 q 804 934 689 1001 q 986 751 919 867 q 1053 500 1053 636 q 925 167 1053 310 l 847 246 q 942 500 942 356 q 828 776 942 661 q 553 890 714 890 m 883 111 l 994 0 l 553 0 q 303 67 418 0 q 122 248 189 133 q 56 497 56 363 q 182 828 56 686 l 260 750 q 165 497 165 640 q 271 232 165 343 q 529 111 376 121 l 883 111 z "},"R":{"ha":857,"x_min":103,"x_max":771,"o":"m 103 0 l 103 517 l 214 406 l 214 0 l 103 0 m 658 500 q 741 403 711 461 q 771 278 771 344 l 771 0 l 658 0 l 658 278 q 636 361 658 322 q 576 422 614 400 q 492 444 538 444 l 254 444 l 103 596 l 103 1001 l 492 1001 q 689 919 607 1001 q 771 724 771 838 q 741 597 771 656 q 658 500 711 539 m 492 556 q 610 605 561 556 q 658 723 658 654 q 610 841 658 792 q 492 890 561 890 l 214 890 l 214 635 l 293 556 l 492 556 z "},"S":{"ha":917,"x_min":68,"x_max":849,"o":"m 347 444 q 151 526 232 444 q 69 724 69 608 q 90 829 69 778 q 118 881 103 857 q 217 969 157 936 q 347 1001 278 1001 l 364 1001 l 475 890 l 347 890 q 260 865 300 890 q 200 800 221 840 q 182 739 185 771 q 181 724 181 731 q 230 605 181 654 q 347 556 279 556 l 364 556 l 475 444 l 347 444 m 347 111 l 364 111 l 475 0 l 347 0 q 151 81 232 0 q 69 278 69 163 l 181 278 q 230 160 181 210 q 347 111 279 111 m 569 556 q 767 474 685 556 q 849 278 849 393 q 826 172 849 222 q 799 121 815 143 q 701 33 761 65 q 569 0 640 0 l 554 0 l 443 111 l 569 111 q 658 136 618 111 q 718 201 697 161 q 736 263 733 231 q 738 278 738 271 q 688 396 738 347 q 569 444 639 444 l 554 444 l 443 556 l 569 556 m 569 890 l 554 890 l 443 1001 l 569 1001 q 767 919 685 1001 q 849 724 849 838 l 738 724 q 688 841 738 792 q 569 890 639 890 z "},"T":{"ha":696,"x_min":14,"x_max":682,"o":"m 292 0 l 292 517 l 403 406 l 403 0 l 292 0 m 14 1001 l 682 1001 l 682 890 l 403 890 l 403 485 l 292 596 l 292 890 l 14 890 l 14 1001 z "},"U":{"ha":953,"x_min":86,"x_max":865,"o":"m 197 1001 l 197 485 l 86 596 l 86 1001 l 197 1001 m 754 1001 l 865 1001 l 865 389 q 804 181 865 275 q 643 38 743 86 q 586 17 614 25 q 475 0 533 0 q 200 114 314 0 q 86 389 86 228 l 86 517 l 197 406 l 197 389 q 279 193 197 275 q 475 111 361 111 q 483 111 478 111 q 492 111 489 111 q 558 124 526 114 q 658 181 614 142 q 728 274 703 219 q 754 389 754 328 l 754 1001 z "},"V":{"ha":832,"x_min":17,"x_max":815,"o":"m 696 1001 l 815 1001 l 507 229 l 446 381 l 696 1001 m 17 1001 l 136 1001 l 478 156 l 415 0 l 17 1001 z "},"W":{"ha":1039,"x_min":18,"x_max":1021,"o":"m 18 1001 l 138 1001 l 453 161 l 392 0 l 18 1001 m 901 1001 l 1019 1001 l 646 0 l 519 333 l 483 239 l 422 399 l 519 640 l 646 324 l 901 1001 z "},"X":{"ha":854,"x_min":26,"x_max":828,"o":"m 526 550 l 468 638 l 460 650 l 694 1001 l 828 1001 l 526 550 m 493 500 l 697 194 l 828 0 l 694 0 l 426 400 l 160 0 l 26 0 l 360 500 l 26 1001 l 160 1001 l 493 500 z "},"Y":{"ha":815,"x_min":8,"x_max":807,"o":"m 350 0 l 350 389 l 461 222 l 461 0 l 350 0 m 674 1001 l 807 1001 l 461 483 l 461 322 l 8 1001 l 139 1001 l 406 601 l 674 1001 z "},"Z":{"ha":838,"x_min":29,"x_max":808,"o":"m 240 111 l 242 111 l 172 0 l 40 0 l 596 890 l 29 890 l 29 1001 l 797 1001 l 240 111 m 303 111 l 808 111 l 808 0 l 233 0 l 303 111 z "},"[":{"ha":415,"x_min":104,"x_max":328,"o":"m 326 890 l 215 890 l 215 111 l 326 111 l 326 0 l 104 0 l 104 1001 l 326 1001 l 326 890 z "},"\\":{"ha":672,"x_min":65,"x_max":608,"o":"m 186 1001 l 607 0 l 488 0 l 65 1001 l 186 1001 z "},"]":{"ha":415,"x_min":88,"x_max":311,"o":"m 88 1001 l 310 1001 l 310 0 l 88 0 l 88 111 l 199 111 l 199 890 l 88 890 l 88 1001 z "},"^":{"ha":446,"x_min":65,"x_max":381,"o":"m 222 1046 l 381 810 l 288 747 l 222 846 l 158 747 l 65 810 l 222 1046 z "},"_":{"ha":1001,"x_min":0,"x_max":1001,"o":"m 1001 -111 l 0 -111 l 0 0 l 1001 0 l 1001 -111 z "},"`":{"ha":283,"x_min":68,"x_max":219,"o":"m 179 913 l 218 874 l 140 794 l 68 867 l 68 1001 l 179 1001 l 179 913 z "},"a":{"ha":707,"x_min":65,"x_max":622,"o":"m 621 39 l 510 151 l 510 444 l 403 444 q 264 397 325 444 q 224 358 242 381 q 176 219 176 297 l 176 111 l 471 111 l 582 0 l 65 0 l 65 219 q 146 436 65 343 q 185 476 164 458 q 403 556 279 556 l 621 556 l 621 39 z "},"b":{"ha":697,"x_min":85,"x_max":642,"o":"m 578 454 q 640 278 640 378 q 559 81 640 163 q 363 0 478 0 l 124 0 l 236 111 l 363 111 q 481 160 432 111 q 529 278 529 210 q 499 375 529 332 q 460 414 482 397 q 363 444 417 444 l 196 444 l 196 151 l 85 39 l 85 779 l 196 779 l 196 556 l 363 556 q 539 493 463 556 q 578 454 560 475 z "},"c":{"ha":661,"x_min":56,"x_max":607,"o":"m 469 182 q 490 222 482 200 l 606 222 q 549 103 593 156 l 469 182 m 333 444 q 238 414 281 444 l 157 493 q 333 556 235 556 q 510 492 433 556 q 606 333 586 429 l 490 333 q 431 414 474 383 q 333 444 388 444 m 333 111 q 431 142 388 111 l 510 63 q 333 0 433 0 q 137 81 218 0 q 56 278 56 163 q 118 454 56 378 l 197 375 q 167 278 167 332 q 216 160 167 210 q 333 111 265 111 z "},"d":{"ha":697,"x_min":56,"x_max":613,"o":"m 611 39 l 500 151 l 500 444 l 333 444 q 238 414 281 444 q 197 375 214 397 q 167 278 167 332 q 216 160 167 210 q 333 111 265 111 l 461 111 l 572 0 l 333 0 q 137 81 218 0 q 56 278 56 163 q 118 454 56 378 q 157 493 136 475 q 333 556 235 556 l 500 556 l 500 779 l 611 779 l 611 39 z "},"e":{"ha":664,"x_min":54,"x_max":613,"o":"m 206 172 q 334 111 254 111 q 463 172 414 111 l 542 93 q 333 0 458 0 q 126 93 210 0 l 206 172 m 606 333 q 611 278 611 307 q 606 222 611 250 l 176 222 l 93 139 q 56 278 56 203 q 149 486 56 403 q 194 518 169 504 q 333 556 258 556 q 472 518 408 556 q 518 486 499 504 q 606 333 588 424 m 176 333 l 490 333 q 440 407 475 378 q 389 435 417 426 q 333 444 363 444 q 278 435 304 444 q 228 407 250 426 q 176 333 192 378 z "},"f":{"ha":404,"x_min":35,"x_max":369,"o":"m 146 0 l 146 367 l 257 256 l 257 0 l 146 0 m 368 668 q 290 635 322 668 q 257 556 257 603 l 368 556 l 368 444 l 257 444 l 257 333 l 146 444 l 35 444 l 35 556 l 146 556 q 211 714 146 649 q 368 779 276 779 l 368 668 z "},"g":{"ha":701,"x_min":61,"x_max":618,"o":"m 339 556 l 617 556 l 617 79 l 506 190 l 506 444 l 339 444 q 268 429 301 444 q 243 414 254 422 q 221 396 232 407 q 172 278 172 347 q 222 160 172 210 q 339 111 271 111 l 506 111 l 617 0 q 552 -157 617 -92 q 394 -222 488 -222 l 283 -222 q 126 -157 192 -222 q 61 0 61 -92 l 172 0 q 205 -78 172 -46 q 283 -111 238 -111 l 394 -111 q 473 -78 440 -111 q 506 0 506 -46 l 339 0 q 142 81 224 0 q 61 278 61 163 q 143 475 61 393 q 163 493 153 485 q 186 510 176 504 q 339 556 256 556 z "},"h":{"ha":713,"x_min":83,"x_max":640,"o":"m 83 0 l 83 72 l 194 183 l 194 0 l 83 0 m 519 507 q 607 409 575 469 q 639 278 639 349 l 639 0 l 528 0 l 528 278 q 503 366 528 326 q 438 426 479 406 q 376 444 410 442 q 361 444 369 444 q 244 396 293 444 q 194 278 194 347 l 194 263 l 83 151 l 83 779 l 194 779 l 194 500 q 361 556 268 556 q 468 535 417 556 q 519 507 496 524 z "},"i":{"ha":279,"x_min":83,"x_max":196,"o":"m 83 374 l 83 556 l 194 556 l 194 263 l 83 374 m 83 0 l 83 294 l 194 183 l 194 0 l 83 0 m 194 668 l 83 668 l 83 779 l 194 779 l 194 668 z "},"j":{"ha":431,"x_min":104,"x_max":328,"o":"m 215 0 l 215 72 l 324 -36 q 248 -169 310 -115 q 104 -222 186 -222 l 104 -111 q 183 -78 150 -111 q 215 0 215 -46 m 215 151 l 215 557 l 326 557 l 326 40 l 215 151 m 326 668 l 215 668 l 215 779 l 326 779 l 326 668 z "},"k":{"ha":557,"x_min":83,"x_max":525,"o":"m 196 779 l 196 482 l 85 379 l 85 779 l 196 779 m 524 556 l 222 278 l 524 0 l 360 0 l 196 151 l 196 0 l 85 0 l 85 303 l 196 406 l 360 556 l 524 556 z "},"l":{"ha":279,"x_min":83,"x_max":196,"o":"m 83 779 l 194 779 l 194 374 l 83 485 l 83 779 m 83 0 l 83 406 l 194 294 l 194 0 l 83 0 z "},"m":{"ha":939,"x_min":83,"x_max":863,"o":"m 83 478 l 199 363 q 194 333 194 349 l 194 0 l 83 0 l 83 478 m 639 556 q 797 491 732 556 q 863 333 863 426 l 863 0 l 751 0 l 751 333 q 719 412 751 379 q 639 444 686 444 q 584 430 610 444 q 543 390 558 415 q 528 333 528 364 l 528 0 l 417 0 l 417 333 q 402 390 417 364 q 362 430 388 415 q 306 444 336 444 q 228 413 260 444 l 83 556 l 194 556 l 194 526 q 306 556 246 556 q 472 481 406 556 q 639 556 539 556 z "},"n":{"ha":711,"x_min":82,"x_max":640,"o":"m 361 556 q 558 474 476 556 q 639 278 639 393 l 639 0 l 528 0 l 528 278 q 479 396 528 347 q 361 444 431 444 q 243 396 292 444 l 83 556 l 194 556 l 194 500 q 361 556 268 556 m 83 478 l 211 350 q 194 278 194 317 l 194 0 l 83 0 l 83 478 z "},"o":{"ha":668,"x_min":54,"x_max":617,"o":"m 257 426 q 186 354 210 401 l 104 436 q 176 507 133 478 l 257 426 m 611 299 q 590 172 615 233 l 500 264 q 500 279 500 271 q 451 397 500 349 q 333 446 403 446 q 318 444 326 446 l 228 536 q 353 557 288 561 q 530 475 456 550 q 611 299 604 400 m 333 111 q 349 113 342 111 l 440 21 q 333 0 389 0 q 137 81 218 0 q 56 278 56 163 q 76 385 56 333 l 168 293 q 167 278 167 286 q 216 160 167 210 q 333 111 265 111 m 410 131 q 482 201 457 154 l 563 121 q 492 49 533 78 l 410 131 z "},"p":{"ha":697,"x_min":83,"x_max":642,"o":"m 363 556 q 559 474 478 556 q 640 278 640 393 q 578 101 640 179 q 539 63 560 81 q 363 0 463 0 l 196 0 l 196 -222 l 85 -222 l 85 517 l 196 406 l 196 111 l 363 111 q 460 142 417 111 q 499 182 482 158 q 529 278 529 225 q 481 396 529 347 q 363 444 432 444 l 236 444 l 124 556 l 363 556 z "},"q":{"ha":697,"x_min":54,"x_max":613,"o":"m 500 406 l 611 517 l 611 -222 l 500 -222 l 500 0 l 333 0 q 157 63 235 0 q 118 101 136 81 q 56 278 56 179 q 137 474 56 393 q 333 556 218 556 l 572 556 l 461 444 l 333 444 q 216 396 265 444 q 167 278 167 347 q 197 182 167 225 q 238 142 214 158 q 333 111 281 111 l 500 111 l 500 406 z "},"r":{"ha":454,"x_min":83,"x_max":419,"o":"m 85 403 l 196 292 q 196 278 196 283 l 196 0 l 85 0 l 85 403 m 363 556 l 418 556 l 418 444 l 363 444 q 272 417 313 444 q 211 347 231 390 l 85 472 l 85 556 l 196 556 l 196 500 q 363 556 269 556 z "},"s":{"ha":689,"x_min":65,"x_max":624,"o":"m 233 111 l 250 111 l 361 0 l 233 0 q 115 49 164 0 q 67 167 67 97 l 178 167 q 194 128 178 144 q 233 111 211 111 m 217 224 q 145 248 178 228 q 92 301 113 268 q 68 372 71 333 q 67 389 67 381 q 97 486 67 443 q 138 525 114 508 q 233 556 181 556 l 250 556 l 361 444 l 233 444 q 219 443 225 444 q 179 404 188 435 q 178 389 178 397 q 194 350 178 367 q 233 333 211 333 l 250 333 l 361 222 l 233 222 q 217 224 225 222 m 456 444 l 440 444 l 329 556 l 456 556 q 574 507 525 556 q 622 389 622 458 l 511 389 q 495 428 511 413 q 456 444 479 444 m 474 333 q 544 308 511 329 q 597 255 576 288 q 622 183 618 222 q 622 167 622 175 q 592 71 622 114 q 553 31 575 47 q 456 0 510 0 l 440 0 l 329 111 l 456 111 q 471 113 464 111 q 510 153 501 121 q 511 167 511 158 q 495 206 511 190 q 456 222 479 222 l 440 222 l 329 333 l 456 333 q 474 333 465 333 z "},"t":{"ha":424,"x_min":35,"x_max":369,"o":"m 257 556 l 368 556 l 368 444 l 257 444 l 257 333 l 146 444 l 35 444 l 35 556 l 146 556 l 146 779 l 257 779 l 257 556 m 257 222 q 290 144 257 176 q 368 111 322 111 l 368 0 q 211 65 276 0 q 146 222 146 131 l 146 367 l 257 256 l 257 222 z "},"u":{"ha":711,"x_min":71,"x_max":628,"o":"m 515 556 l 626 556 l 626 263 l 515 374 l 515 556 m 515 278 l 515 294 l 626 183 l 626 0 l 515 0 l 515 56 q 349 0 442 0 q 152 81 233 0 q 71 278 71 163 l 71 556 l 182 556 l 182 278 q 231 160 182 210 q 349 111 281 111 q 467 160 418 111 q 515 278 515 210 z "},"v":{"ha":596,"x_min":26,"x_max":569,"o":"m 192 468 l 297 250 l 358 125 l 297 0 l 26 556 l 150 556 l 192 468 m 444 556 l 568 556 l 386 182 l 325 307 l 444 556 m 192 472 l 297 254 l 192 472 z "},"w":{"ha":842,"x_min":25,"x_max":815,"o":"m 393 414 l 393 167 l 307 -10 l 26 556 l 153 556 l 307 232 l 360 346 l 393 414 m 688 556 l 814 556 l 535 -10 l 447 167 l 449 167 l 449 414 l 481 346 l 535 232 l 688 556 z "},"x":{"ha":625,"x_min":36,"x_max":589,"o":"m 313 372 l 382 278 l 588 0 l 449 0 l 313 185 l 175 0 l 36 0 l 243 278 l 36 556 l 175 556 l 313 372 m 588 556 l 410 315 l 340 410 l 449 556 l 588 556 z "},"y":{"ha":715,"x_min":75,"x_max":632,"o":"m 519 556 l 631 556 l 631 485 l 519 374 l 519 556 m 519 278 l 519 294 l 631 406 l 631 0 q 566 -157 631 -92 q 408 -222 501 -222 l 297 -222 q 140 -157 206 -222 q 75 0 75 -92 l 186 0 q 219 -78 186 -46 q 297 -111 251 -111 l 408 -111 q 487 -78 454 -111 q 519 0 519 -46 l 519 56 q 353 0 446 0 q 247 21 297 0 q 196 49 218 33 q 108 148 140 88 q 75 278 75 208 l 75 556 l 186 556 l 186 278 q 211 191 186 231 q 276 131 236 151 q 338 113 306 115 q 353 111 346 111 q 471 160 422 111 q 519 278 519 210 z "},"z":{"ha":647,"x_min":44,"x_max":601,"o":"m 44 556 l 600 556 l 183 0 l 44 0 l 378 444 l 44 444 l 44 556 m 239 0 l 322 111 l 600 111 l 600 0 l 239 0 z "},"{":{"ha":492,"x_min":83,"x_max":404,"o":"m 292 886 l 292 593 l 222 500 l 292 408 l 292 115 q 296 111 292 111 l 403 111 l 403 0 l 296 0 q 215 33 249 0 q 181 115 181 67 l 181 371 l 83 500 l 181 631 l 181 886 q 215 967 181 933 q 296 1001 249 1001 l 403 1001 l 403 890 l 296 890 q 292 886 292 890 z "},"|":{"ha":321,"x_min":104,"x_max":217,"o":"m 215 -222 l 104 -222 l 104 1001 l 215 1001 l 215 -222 z "},"}":{"ha":492,"x_min":88,"x_max":408,"o":"m 310 631 l 407 500 l 310 371 l 310 115 q 276 33 310 67 q 196 0 243 0 l 88 0 l 88 111 l 196 111 q 199 115 199 111 l 199 408 l 268 500 l 199 593 l 199 886 q 196 890 199 890 l 88 890 l 88 1001 l 196 1001 q 276 967 243 1001 q 310 886 310 933 l 310 631 z "},"~":{"ha":799,"x_min":65,"x_max":733,"o":"m 621 668 l 733 668 q 721 606 733 633 q 692 562 708 579 q 644 532 675 544 q 590 514 614 519 q 526 505 567 508 q 463 501 485 501 q 399 500 440 500 q 226 490 275 500 q 176 444 176 479 l 65 444 q 77 506 65 479 q 106 551 89 533 q 153 581 122 568 q 208 599 183 593 q 272 608 232 604 q 335 612 313 611 q 399 613 358 613 q 572 623 522 613 q 621 668 621 633 z "}," ":{"ha":307,"x_min":0,"x_max":0,"o":""},"¢":{"ha":724,"x_min":89,"x_max":642,"o":"m 640 1007 l 544 779 l 589 779 l 589 668 l 497 668 l 357 335 q 367 333 360 333 l 589 333 l 589 222 l 367 222 q 313 228 340 222 l 196 -50 l 93 -6 l 210 271 q 122 370 154 310 q 89 500 89 431 q 170 697 89 615 q 367 779 251 779 l 424 779 l 539 1051 l 640 1007 m 256 378 l 376 668 l 367 668 q 249 619 299 668 q 200 500 200 569 q 256 378 200 426 z "},"£":{"ha":851,"x_min":97,"x_max":765,"o":"m 431 167 q 611 138 493 167 q 765 111 717 111 l 765 0 q 585 29 703 0 q 431 56 479 56 q 278 29 383 56 q 97 0 160 0 l 97 111 q 142 146 115 111 q 188 234 168 181 q 208 333 208 288 l 97 333 l 97 444 l 164 444 q 133 506 144 481 q 109 576 121 531 q 97 668 97 621 q 195 903 97 806 q 431 1001 293 1001 q 667 903 569 1001 q 765 668 765 806 l 653 668 q 588 825 653 760 q 431 890 524 890 q 274 825 339 890 q 208 668 208 760 q 217 598 208 632 q 236 545 226 564 q 265 493 246 526 q 292 444 282 464 l 542 444 l 542 333 l 319 333 q 269 142 319 240 q 431 167 369 167 z "},"¥":{"ha":915,"x_min":75,"x_max":839,"o":"m 513 485 l 513 444 l 735 444 l 735 333 l 513 333 l 513 222 l 735 222 l 735 111 l 513 111 l 513 0 l 401 0 l 401 111 l 179 111 l 179 222 l 401 222 l 401 333 l 179 333 l 179 444 l 401 444 l 401 485 l 76 999 l 171 1058 l 457 606 l 744 1058 l 838 999 l 513 485 z "},"©":{"ha":1179,"x_min":89,"x_max":1090,"o":"m 339 934 q 397 968 339 934 q 590 1001 454 1001 q 840 934 725 1001 q 1023 751 956 867 q 1090 500 1090 636 q 1051 306 1090 399 q 944 147 1011 214 q 784 40 876 79 q 590 0 692 0 q 395 40 488 0 q 235 147 303 79 q 128 306 168 214 q 89 500 89 399 q 156 751 89 636 q 339 934 224 867 m 315 226 q 372 168 315 226 q 590 111 429 111 q 865 226 750 111 q 979 501 979 340 q 865 776 979 661 q 590 890 750 890 q 315 776 429 890 q 200 501 200 661 q 315 226 200 340 m 589 668 q 472 619 521 668 q 422 501 422 569 q 472 383 422 432 q 589 333 521 333 q 657 348 625 333 q 712 388 689 363 q 747 444 735 413 l 863 444 q 810 331 849 382 q 713 251 771 281 q 589 222 656 222 q 393 304 475 222 q 311 501 311 386 q 393 697 311 615 q 589 779 475 779 q 766 716 689 779 q 863 556 843 653 l 747 556 q 686 637 729 606 q 589 668 643 668 z "},"­":{"ha":0,"x_min":0,"x_max":0,"o":""},"®":{"ha":1179,"x_min":89,"x_max":1090,"o":"m 339 934 q 397 968 339 934 q 590 1001 454 1001 q 840 934 725 1001 q 1023 751 956 867 q 1090 500 1090 636 q 1051 306 1090 399 q 944 147 1011 214 q 784 40 876 79 q 590 0 692 0 q 395 40 488 0 q 235 147 303 79 q 128 306 168 214 q 89 500 89 399 q 156 751 89 636 q 339 934 224 867 m 315 226 q 372 168 315 226 q 590 111 429 111 q 865 226 750 111 q 979 501 979 340 q 865 776 979 661 q 590 890 750 890 q 315 776 429 890 q 200 501 200 661 q 315 226 200 340 m 813 613 q 753 485 813 535 q 813 335 813 422 l 813 222 l 701 222 l 701 335 q 669 413 701 381 q 590 444 636 444 l 478 444 l 478 222 l 367 222 l 367 779 l 644 779 q 763 730 714 779 q 813 613 813 681 m 644 556 q 685 572 668 556 q 701 612 701 589 q 685 651 701 635 q 644 668 668 668 l 478 668 l 478 556 l 644 556 z "},"×":{"ha":626,"x_min":76,"x_max":550,"o":"m 549 658 l 392 500 l 549 343 l 469 264 l 313 422 l 156 264 l 76 343 l 233 500 l 76 658 l 156 736 l 313 579 l 469 736 l 549 658 z "},"÷":{"ha":682,"x_min":63,"x_max":619,"o":"m 618 444 l 63 444 l 63 556 l 618 556 l 618 444 m 396 668 l 285 668 l 285 779 l 396 779 l 396 668 m 396 222 l 285 222 l 285 333 l 396 333 l 396 222 z "},"‘":{"ha":251,"x_min":71,"x_max":183,"o":"m 126 890 l 182 890 l 182 779 l 71 779 l 71 1001 l 126 1001 l 126 890 z "},"’":{"ha":251,"x_min":68,"x_max":181,"o":"m 68 1001 l 179 1001 l 179 779 l 124 779 l 124 890 l 68 890 l 68 1001 z "},"“":{"ha":418,"x_min":71,"x_max":350,"o":"m 126 1001 l 126 890 l 182 890 l 182 779 l 71 779 l 71 1001 l 126 1001 m 293 890 l 349 890 l 349 779 l 238 779 l 238 1001 l 293 1001 l 293 890 z "},"”":{"ha":418,"x_min":67,"x_max":347,"o":"m 68 890 l 68 1001 l 179 1001 l 179 779 l 124 779 l 124 890 l 68 890 m 235 1001 l 346 1001 l 346 779 l 290 779 l 290 890 l 235 890 l 235 1001 z "},"€":{"ha":1168,"x_min":85,"x_max":1088,"o":"m 1000 257 l 1088 188 q 913 49 1015 99 q 697 0 811 0 q 406 93 536 0 q 225 333 276 186 l 85 333 l 85 444 l 199 444 q 196 501 196 474 q 199 556 196 528 l 85 556 l 85 668 l 225 668 q 328 840 260 764 q 494 958 397 915 q 697 1001 590 1001 q 910 953 808 1001 q 1083 819 1011 906 l 997 749 q 863 853 942 815 q 697 890 783 890 q 551 862 621 890 q 429 783 482 833 q 344 668 376 733 l 640 668 l 640 556 l 311 556 q 307 501 307 528 q 311 444 307 474 l 640 444 l 640 333 l 344 333 q 488 172 393 233 q 697 111 582 111 q 865 149 786 111 q 1000 257 944 188 z "},"™":{"ha":1047,"x_min":72,"x_max":963,"o":"m 72 890 l 72 1001 l 406 1001 l 406 890 l 294 890 l 294 556 l 183 556 l 183 890 l 72 890 m 843 1001 l 963 1001 l 963 556 l 851 556 l 851 858 l 740 760 l 628 858 l 628 556 l 517 556 l 517 1001 l 636 1001 l 740 908 l 843 1001 z "}}}
